/* XPM */
static char * gtkatlantic_xpm[] = {
"32 32 510 2",
"  	c None",
". 	c #000000",
"+ 	c #7F0000",
"@ 	c #530000",
"# 	c #7F7F1C",
"$ 	c #535312",
"% 	c #8DC0FB",
"& 	c #8BC1FD",
"* 	c #91C5FE",
"= 	c #9FCBFE",
"- 	c #98C7FB",
"; 	c #FF0000",
"> 	c #A80000",
", 	c #AAD4FF",
"' 	c #A0C9FE",
") 	c #94C3FF",
"! 	c #90C1FF",
"~ 	c #FFFF39",
"{ 	c #A8A825",
"] 	c #91C2FA",
"^ 	c #8EC1FA",
"/ 	c #84BBF9",
"( 	c #93C9FE",
"_ 	c #92C4FC",
": 	c #A4D2FF",
"< 	c #8CBFF7",
"[ 	c #88BAFC",
"} 	c #89C1FF",
"| 	c #87BFFC",
"1 	c #94C6FB",
"2 	c #99CBFE",
"3 	c #9CCBFD",
"4 	c #9FCCFE",
"5 	c #94C7FF",
"6 	c #86BBF9",
"7 	c #97C8FE",
"8 	c #96C9FF",
"9 	c #8BBEFA",
"0 	c #90C3FC",
"a 	c #9BCCFF",
"b 	c #95C7FE",
"c 	c #8DC1FE",
"d 	c #7EB8FC",
"e 	c #7EB9FC",
"f 	c #8CC5FF",
"g 	c #95C8FF",
"h 	c #8CC3FE",
"i 	c #90C5FF",
"j 	c #98CFFF",
"k 	c #7CB6F7",
"l 	c #9ACDFF",
"m 	c #95C6FC",
"n 	c #93C3FA",
"o 	c #94C3FA",
"p 	c #8FC3FC",
"q 	c #88BCF8",
"r 	c #98CCFF",
"s 	c #8CC2FC",
"t 	c #7BB7FB",
"u 	c #73B2FF",
"v 	c #77B2FE",
"w 	c #81B5FC",
"x 	c #72B0FB",
"y 	c #70ADFA",
"z 	c #89C4FC",
"A 	c #83BDFE",
"B 	c #94C6FE",
"C 	c #98C7FC",
"D 	c #A4D1FF",
"E 	c #9ECAFD",
"F 	c #8DC1F9",
"G 	c #85BDFB",
"H 	c #91C6FD",
"I 	c #91C4FC",
"J 	c #81BFFD",
"K 	c #69ADF9",
"L 	c #6CAFFF",
"M 	c #454545",
"N 	c #9CC6FF",
"O 	c #9ED0FF",
"P 	c #85BBFE",
"Q 	c #80B9FF",
"R 	c #533100",
"S 	c #A86400",
"T 	c #FF9900",
"U 	c #75B5FF",
"V 	c #73B3FF",
"W 	c #6DB0FD",
"X 	c #68AEFF",
"Y 	c #509EF7",
"Z 	c #68BCFF",
"` 	c #4EA2F6",
" .	c #61A8F9",
"..	c #7FB9FE",
"+.	c #90C3FE",
"@.	c #87C1FC",
"#.	c #77B3F6",
"$.	c #8DC4FF",
"%.	c #84BCFC",
"&.	c #97CAFF",
"*.	c #A1CDFF",
"=.	c #9BCAFF",
"-.	c #9ECCFB",
";.	c #006400",
">.	c #009900",
",.	c #004C00",
"'.	c #7F4C00",
").	c #70B1FC",
"!.	c #73B5FE",
"~.	c #7EC0FF",
"{.	c #71B3FC",
"].	c #6AAFFE",
"^.	c #59A2F5",
"/.	c #69B0F7",
"(.	c #6DACF6",
"_.	c #87BFFE",
":.	c #89BDF8",
"<.	c #9ACFFE",
"[.	c #8BBFF5",
"}.	c #8FC1FF",
"|.	c #92C6FF",
"1.	c #9ECCFF",
"2.	c #ABD4FF",
"3.	c #A0CAFB",
"4.	c #A9D2FE",
"5.	c #003100",
"6.	c #79B5F4",
"7.	c #88C4FF",
"8.	c #84BBFB",
"9.	c #87BDFA",
"0.	c #88C1FF",
"a.	c #73ACF7",
"b.	c #8FC5FF",
"c.	c #86BCF8",
"d.	c #88C0F9",
"e.	c #91C4FA",
"f.	c #9FCEFE",
"g.	c #9FCEFD",
"h.	c #96C6FB",
"i.	c #9DCFFF",
"j.	c #A3D0FA",
"k.	c #B0D6FB",
"l.	c #B5DDFF",
"m.	c #B0D5FF",
"n.	c #94CAFE",
"o.	c #85BBF6",
"p.	c #8ABEFB",
"q.	c #92C5FF",
"r.	c #8EC0FE",
"s.	c #8FC2FB",
"t.	c #97C9FE",
"u.	c #98C9FF",
"v.	c #98C6FF",
"w.	c #9DCCFC",
"x.	c #AFDBFE",
"y.	c #A9D5FD",
"z.	c #A4CFFD",
"A.	c #A9D4FD",
"B.	c #B8E3FF",
"C.	c #C0E9FF",
"D.	c #B5DEFC",
"E.	c #AFD4FF",
"F.	c #ACD7FB",
"G.	c #B2DFFE",
"H.	c #ABD9FD",
"I.	c #9ED2FF",
"J.	c #8ABDF6",
"K.	c #98CAFF",
"L.	c #96C7FD",
"M.	c #97C8FF",
"N.	c #A1D1FF",
"O.	c #A1D0FD",
"P.	c #9AC8FD",
"Q.	c #A8D5FF",
"R.	c #A9D5FB",
"S.	c #A8D3FB",
"T.	c #ADD9FF",
"U.	c #B0DBFC",
"V.	c #BDE2FD",
"W.	c #C3E9FF",
"X.	c #BDE2FE",
"Y.	c #BBDDFF",
"Z.	c #BFE5FF",
"`.	c #AED8FC",
" +	c #A5D0FB",
".+	c #AED9FD",
"++	c #A9D5F7",
"@+	c #B6E2FF",
"#+	c #96C8FB",
"$+	c #96C8FC",
"%+	c #92C4FB",
"&+	c #9ACBFA",
"*+	c #99C8FB",
"=+	c #9AC9FF",
"-+	c #9DCDFD",
";+	c #A7D4FE",
">+	c #A7D1FB",
",+	c #AAD5FF",
"'+	c #98C6FA",
")+	c #A0CDFD",
"!+	c #B1DDFE",
"~+	c #AFDBFD",
"{+	c #A7D3F7",
"]+	c #ADD7FD",
"^+	c #BBDEFF",
"/+	c #BDE1FF",
"(+	c #BBDFFD",
"_+	c #B6DEFF",
":+	c #AED6FD",
"<+	c #AFDAFB",
"[+	c #94C4F2",
"}+	c #A0D0FE",
"|+	c #95C4F8",
"1+	c #9ECDF9",
"2+	c #A3D1FF",
"3+	c #9ECCFE",
"4+	c #ACD3FE",
"5+	c #B1D6FC",
"6+	c #ADD8FD",
"7+	c #A0CFFC",
"8+	c #9ECBFE",
"9+	c #AAD4FE",
"0+	c #A2CDF7",
"a+	c #ADD6FF",
"b+	c #A6CEFE",
"c+	c #B1DBFF",
"d+	c #A1CFFB",
"e+	c #9BCDFD",
"f+	c #9BCAFC",
"g+	c #A6D3FE",
"h+	c #AEDBFF",
"i+	c #A2CFFA",
"j+	c #A3D0FC",
"k+	c #B0D8FF",
"l+	c #B7DCFF",
"m+	c #ACD4FC",
"n+	c #ABD7FF",
"o+	c #9FCBFD",
"p+	c #A1CCFD",
"q+	c #B1DDFF",
"r+	c #A1D0FF",
"s+	c #A8D5FC",
"t+	c #9FCBFB",
"u+	c #A1CCFF",
"v+	c #A2CEFE",
"w+	c #A9D4FC",
"x+	c #9FCDFA",
"y+	c #A6D2FF",
"z+	c #AAD1FD",
"A+	c #B3DCFE",
"B+	c #AED5FB",
"C+	c #B4DBFD",
"D+	c #B2DCFF",
"E+	c #A8D2FD",
"F+	c #A0CBFD",
"G+	c #A7D3FB",
"H+	c #A4D3FE",
"I+	c #90C3F8",
"J+	c #A2D2FF",
"K+	c #90BFF7",
"L+	c #A2CFF9",
"M+	c #96C5F9",
"N+	c #A4D0FC",
"O+	c #A7D3FF",
"P+	c #A8D4FF",
"Q+	c #A1CBFE",
"R+	c #AFD8FF",
"S+	c #A4CCFD",
"T+	c #A4CAFA",
"U+	c #B2D8FD",
"V+	c #B6DDFF",
"W+	c #ACD2FA",
"X+	c #ADD5FC",
"Y+	c #ADD9FE",
"Z+	c #A8D5FB",
"`+	c #A1CFFE",
" @	c #A2CDFA",
".@	c #AFDCFF",
"+@	c #91C2F2",
"@@	c #99CCFD",
"#@	c #95C8FB",
"$@	c #A7D2FF",
"%@	c #A1CEFE",
"&@	c #9DCCFE",
"*@	c #32001F",
"=@	c #660040",
"-@	c #9C0062",
";@	c #A6D4FF",
">@	c #A5CEFB",
",@	c #9BC6FD",
"'@	c #A8D5FE",
")@	c #A9D6FF",
"!@	c #A6D0FE",
"~@	c #A7D0FE",
"{@	c #A2CCFC",
"]@	c #A6D6FF",
"^@	c #96C7F7",
"/@	c #97C8FC",
"(@	c #A3CCFD",
"_@	c #A8D3FD",
":@	c #A4D4FD",
"<@	c #99CCFF",
"[@	c #9FCAFE",
"}@	c #9ECBFD",
"|@	c #9ECDFE",
"1@	c #4D0030",
"2@	c #9A2F72",
"3@	c #97788B",
"4@	c #7D777B",
"5@	c #7F6776",
"6@	c #91A7BF",
"7@	c #9BB9D6",
"8@	c #9DC3ED",
"9@	c #91C1FC",
"0@	c #92C3FB",
"a@	c #98C9FD",
"b@	c #9DCDFE",
"c@	c #9FCDFF",
"d@	c #9EC9FE",
"e@	c #9CC9FC",
"f@	c #96C5FA",
"g@	c #99CDFC",
"h@	c #91C5F9",
"i@	c #9CCAF8",
"j@	c #ABDAFF",
"k@	c #8DBFF8",
"l@	c #90C7FA",
"m@	c #93C6FC",
"n@	c #A0CBFF",
"o@	c #9CCAFD",
"p@	c #9BCCFB",
"q@	c #523045",
"r@	c #968E93",
"s@	c #808080",
"t@	c #5C5C5C",
"u@	c #797979",
"v@	c #9A9A9A",
"w@	c #979797",
"x@	c #333333",
"y@	c #959595",
"z@	c #999CA0",
"A@	c #8FB8E8",
"B@	c #90C4FF",
"C@	c #92C5FE",
"D@	c #95C6FA",
"E@	c #98C7FE",
"F@	c #85BAF9",
"G@	c #91C9FF",
"H@	c #85BCF4",
"I@	c #8CBFF9",
"J@	c #97C9FD",
"K@	c #A1D2FE",
"L@	c #9ECEFD",
"M@	c #87BEF6",
"N@	c #0000A8",
"O@	c #0000FF",
"P@	c #00007F",
"Q@	c #939393",
"R@	c #838383",
"S@	c #1F1F1F",
"T@	c #949494",
"U@	c #969696",
"V@	c #161616",
"W@	c #929292",
"X@	c #AAAAAA",
"Y@	c #C1C1C1",
"Z@	c #95BBE7",
"`@	c #7DB6FA",
" #	c #83BBFA",
".#	c #8DBFF9",
"+#	c #8ABBF2",
"@#	c #85B2E4",
"##	c #94AFCB",
"$#	c #7C8793",
"%#	c #90A5BC",
"&#	c #93C1F3",
"*#	c #A1D3FF",
"=#	c #92C5FD",
"-#	c #000053",
";#	c #F5F5F5",
">#	c #EEEEEE",
",#	c #D9D9D9",
"'#	c #B8B8B8",
")#	c #9E9E9E",
"!#	c #999999",
"~#	c #505050",
"{#	c #0F0F0F",
"]#	c #9C9C9C",
"^#	c #9D9D9D",
"/#	c #C0C0C0",
"(#	c #9FC3E9",
"_#	c #7FB2EF",
":#	c #91AAC6",
"<#	c #93989E",
"[#	c #6B6B6B",
"}#	c #1D1D1D",
"|#	c #737373",
"1#	c #97A8BA",
"2#	c #96C1F3",
"3#	c #91C4FE",
"4#	c #97CAFE",
"5#	c #9CCCFF",
"6#	c #5A5A5A",
"7#	c #3E3E3E",
"8#	c #FFFFFF",
"9#	c #F7F7F7",
"0#	c #CACACA",
"a#	c #BABABA",
"b#	c #BBBBBB",
"c#	c #A1C3E7",
"d#	c #C8E3FD",
"e#	c #FCFCFC",
"f#	c #A2A2A2",
"g#	c #575757",
"h#	c #414141",
"i#	c #666666",
"j#	c #85BCF7",
"k#	c #87BBFE",
"l#	c #93C7FE",
"m#	c #9ACBFF",
"n#	c #FEFEFE",
"o#	c #B0B0B0",
"p#	c #A6C7E5",
"q#	c #D3EAFF",
"r#	c #E4E4E4",
"s#	c #6F6F6F",
"t#	c #0E0E0E",
"u#	c #9B9B9B",
"v#	c #A3A3A3",
"w#	c #B5B5B5",
"x#	c #BCBCBC",
"y#	c #B1CBE4",
"z#	c #D6E9FE",
"A#	c #C4C4C4",
"B#	c #AEAEAE",
"C#	c #BDBDBD",
"D#	c #BFBFBF",
"E#	c #050505",
"F#	c #777777",
"G#	c #262626",
"H#	c #C2C2C2",
"I#	c #909090",
"J#	c #717171",
"K#	c #B2C2D3",
"L#	c #FDFDFD",
"M#	c #B9B9B9",
"N#	c #242424",
"O#	c #C3C3C3",
"P#	c #ACACAC",
"Q#	c #7BB7F6",
"R#	c #8EC6FF",
"S#	c #88BCFA",
"T#	c #E5E5E5",
"U#	c #C9C9C9",
"V#	c #090909",
"W#	c #C0D8EB",
"X#	c #CDE6FF",
"Y#	c #D0D0D0",
"Z#	c #A4A4A4",
"`#	c #B6B6B6",
" $	c #313131",
".$	c #C5C5C5",
"+$	c #7DBAF6",
"@$	c #86C0FD",
"#$	c #90C4FE",
"$$	c #B7D1EA",
"%$	c #B1DBFE",
"&$	c #B3C3D4",
"*$	c #D8D8D8",
"=$	c #2B2B2B",
"-$	c #94C8F8",
";$	c #82B6FC",
">$	c #96CCFE",
",$	c #8C8C8C",
"'$	c #ECECEC",
")$	c #B8BBBD",
"!$	c #A1CBF5",
"~$	c #9AC6FB",
"{$	c #98C5F9",
"]$	c #B6C6D5",
"^$	c #5E5E5E",
"/$	c #C6C6C6",
"($	c #A3D5FF",
"_$	c #83B8F6",
":$	c #8EC5FD",
"<$	c #DDEEFE",
"[$	c #F2F7FE",
"}$	c #B1B1B1",
"|$	c #B2C5D7",
"1$	c #6687A8",
"2$	c #9CCEFF",
"3$	c #97C7FD",
"4$	c #8FC3FD",
"5$	c #7492B0",
"6$	c #EEF6FF",
"7$	c #393939",
"8$	c #B3B3B3",
"9$	c #A0CDFE",
"0$	c #96CBFB",
"a$	c #85BCFC",
"b$	c #A0A0A0",
"c$	c #596571",
"d$	c #4D667F",
"e$	c #324353",
"f$	c #8A8A8A",
"g$	c #3B3B3B",
"h$	c #B4B4B4",
"i$	c #AFAFAF",
"j$	c #A5A5A5",
"k$	c #FBFBFB",
"    . . . . . . + @ . . + @ + @ . . # $ # $ . . # $ . . . . . . ",
"    . % & * = - ; > , ' ; > ; > ) ! ~ { ~ { ] ^ ~ { / ( _ : < . ",
"    . [ } | 1 2 ; > 3 4 ; > ; > 5 6 ~ { ~ { 7 8 ~ { 9 ^ 0 a b . ",
"    . c d e f g ; > h i ; > ; > j k ~ { ~ { l m ~ { n o p q r . ",
"    . s t u v w ; ; x y ; ; ; ; z A ~ ~ ~ ~ B C ~ ~ D E F G H . ",
"    . I J K L M > > M M > > > > M M { { { { M M { { M N O P Q . ",
"    R S S S T S U V W X Y Z `  ...+.@.#.$.%.&.*.=.-.;.>.>.>.>.,.",
"    '.T T T T S ).!.~.{.].^./.(._.:.<.[.}.|.1.2.3.4.;.>.;.;.;.5.",
"    R S S S T S 6.7.8.9.0.a.b.c.d.e.f.g.h.i.j.k.l.m.;.>.>.>.>.,.",
"    '.T T T T S n.o.p.l q.r.s.t.u.v.w.x.y.z.A.B.C.D.;.>.;.;.;.5.",
"    . E.F.G.H.M I.J.K.t.L.M.b N.O.P.1.Q.R.S.T.U.V.W.M X.Y.Z.`.. ",
"    .  +.+++@+M #+$+%+&+*+=+-+;+>+,+'+)+!+~+{+]+^+/+M (+_+:+<+. ",
"    R S S S T S [+}+|+1+2+3+O.4+5+6+7+8+9+,+0+a+b+c+;.>.>.>.>.,.",
"    '.T T T T S d+e+f+g+h+i+j+k+l+m+n+o+p+q+O.a r+4 ;.>.;.;.;.5.",
"    . s+t+u+v+M w+x+y+z+:+A+m+B+C+D+E+F+p+G+H+I+J+K+M w.L+D M+. ",
"    . N+O+P+Q+M D+R+S+T+U+V+W+X+]+Y+Z+O.`+ @.@+@t.@@M #@$@%@&@. ",
"    *@=@=@=@-@=@;@>@,@u+F+'@)@!@~@{@]@^@/@(@_@:@^ I.M <@[@}@|@. ",
"    1@-@2@3@4@5@6@7@8@9@0@a@b@c@d@e@f@g@h@`+i@j@k@l@M m@n@o@p@. ",
"    q@r@s@t@t@u@v@w@x@y@z@A@B@C@D@E@F@G@H@I@J@K@L@M@N@O@O@O@O@P@",
"  Q@R@S@T@s@U@y@V@W@w@X@Y@Z@`@ #8 .#+#@###$#%#&#*#=#N@O@N@N@N@-#",
";#>#,#'#)#!#~#{#]#^#/#/#/#(#_#:#<#[#U@y@!#}#|#y@1#2#M } 3#4#5#. ",
"6#7#8#8#8#8#9#0#a#b#/#/#/#c#d#e#f#g#!#y@T@y@y@U@h#i#s@j#k#l#m#. ",
"8#8#8#8#8#8#8#n#o#. /#/#/#p#q#8#8#r#Q@s#t#u#y@y@y@v#w#/#O@O@O@P@",
"8#8#8#8#8#8#8#n#/#x#/#/#/#y#z#8#8#8#n#A#w@B#C#D#/#D#E#F#N@N@N@-#",
"8#8#8#G#[#8#8#n#/#/#/#H#I#J#K#8#8#8#8#L#M#N#O#/#/#/#P#C#Q#R#S#. ",
"8#8#8#0#T#8#8#n#/#/#/#U#V#W#X#8#Y#Z#8#e#`# $x#/#.$/#/#/#+$@$#$. ",
"8#8#8#8#8#8#8#n#/#/#/#/#$$%$&$8#*$a#8#e#C#.$/#w#=$Y@/#/#-$;$>$. ",
"8#8#8#8#8#8#,$'$/#/#)$!$~${$]$8#8#8#8#e#x#/#/#M#^$/#/$/#($_$:$. ",
"    |#<$[$L#=$}$/#|$1$2$3$4$5$6$8#8#8#e#x#/#/#/#Y@/#7$8$9$0$a$. ",
"    . . . . ~#b$c$d$e$d$. . e$d$f$8#8#e#C#I#H#/#/#/#g$h$. . . . ",
"                                    8#e#i$. j$/#/#/#            ",
"                                      k$C#0#                    "};
